<svg width="49" height="49" viewBox="0 0 49 49" fill="none" xmlns="http://www.w3.org/2000/svg">
<path d="M0 24.5C0 10.969 10.969 0 24.5 0C38.031 0 49 10.969 49 24.5C49 38.031 38.031 49 24.5 49C10.969 49 0 38.031 0 24.5Z" fill="url(#paint0_linear_24_824)"/>
<path fill-rule="evenodd" clip-rule="evenodd" d="M31.2115 25.213C29.4438 25.9218 27.5357 26.3589 25.54 26.4722C25.1958 26.4917 24.849 26.5016 24.4999 26.5016C24.1508 26.5016 23.804 26.4917 23.4598 26.4722C21.4636 26.3589 19.5551 25.9216 17.7871 25.2125C14.0767 23.7245 10.985 21.0398 9 17.6417C12.0939 12.3453 17.8767 8.78186 24.4999 8.78186C31.1231 8.78186 36.9059 12.3453 39.9998 17.6417C38.0146 21.0402 34.9224 23.7251 31.2115 25.213Z" fill="white"/>
<path d="M17.7865 26.5918C17.3591 26.4204 16.9398 26.2331 16.5295 26.0306C15.1962 26.9608 14.069 28.1193 13.2202 29.441C14.6629 31.6875 16.91 33.4625 19.6067 34.4462C20.8917 34.915 22.2788 35.2041 23.7296 35.279H25.2415C26.692 35.2041 29.2414 36.6272 25.5394 40.2182C28.2365 39.2345 34.308 31.6878 35.7509 29.441C34.9045 28.123 33.7813 26.9674 32.4529 26.0386C32.0474 26.2382 31.6332 26.423 31.2109 26.5923C29.4432 27.3011 27.5351 27.7382 25.5394 27.8515C25.1952 27.871 24.8484 27.8809 24.4993 27.8809C24.1502 27.8809 23.8034 27.871 23.4592 27.8515C21.4631 27.7382 19.5545 27.3009 17.7865 26.5918Z" fill="white"/>
<rect x="17.0259" y="15.3752" width="14.9808" height="5.29826" rx="2.64913" fill="#162550"/>
<ellipse cx="28.6474" cy="17.995" rx="0.980887" ry="0.971349" fill="#04FED1"/>
<ellipse cx="24.4858" cy="31.064" rx="0.980887" ry="0.971349" fill="#162550"/>
<ellipse cx="20.5629" cy="17.995" rx="0.980887" ry="0.971349" fill="#04FED1"/>
<ellipse cx="20.5629" cy="31.064" rx="0.980887" ry="0.971349" fill="#162550"/>
<ellipse cx="28.4101" cy="31.064" rx="0.980887" ry="0.971349" fill="#162550"/>
<defs>
<linearGradient id="paint0_linear_24_824" x1="0" y1="24.5" x2="49" y2="24.5" gradientUnits="userSpaceOnUse">
<stop stop-color="#00C39A"/>
<stop offset="1" stop-color="#1ED3D6"/>
</linearGradient>
</defs>
</svg>
