<svg width="42" height="42" viewBox="0 0 42 42" fill="none" xmlns="http://www.w3.org/2000/svg">
<rect x="0.5" y="0.5" width="41" height="41" rx="20.5" fill="#E0F7F4"/>
<rect x="0.5" y="0.5" width="41" height="41" rx="20.5" stroke="#0AB39E"/>
<path d="M16.8933 28.192C16.1466 28.192 15.4426 28.0587 14.7813 27.792C14.1306 27.5147 13.5653 27.1253 13.0853 26.624C12.616 26.1227 12.264 25.5307 12.0293 24.848L14.0613 23.936C14.36 24.5867 14.7706 25.0987 15.2933 25.472C15.8266 25.8453 16.4133 26.032 17.0533 26.032C17.3946 26.032 17.688 25.9787 17.9333 25.872C18.1786 25.7653 18.3706 25.6213 18.5093 25.44C18.648 25.248 18.7173 25.024 18.7173 24.768C18.7173 24.4907 18.632 24.256 18.4613 24.064C18.2906 23.8613 18.024 23.7013 17.6613 23.584L15.3253 22.816C14.376 22.5067 13.6613 22.0693 13.1813 21.504C12.7013 20.928 12.4613 20.24 12.4613 19.44C12.4613 18.736 12.632 18.1173 12.9733 17.584C13.3253 17.0507 13.8106 16.6347 14.4293 16.336C15.0586 16.0373 15.7786 15.888 16.5893 15.888C17.304 15.888 17.9653 16.0107 18.5733 16.256C19.1813 16.5013 19.704 16.848 20.1413 17.296C20.5893 17.744 20.9253 18.2827 21.1493 18.912L19.1333 19.824C18.9093 19.2693 18.5733 18.8373 18.1253 18.528C17.6773 18.208 17.1653 18.048 16.5893 18.048C16.2586 18.048 15.9653 18.1013 15.7093 18.208C15.4533 18.3147 15.256 18.4693 15.1173 18.672C14.9786 18.864 14.9093 19.088 14.9093 19.344C14.9093 19.6213 15 19.8667 15.1813 20.08C15.3626 20.2827 15.6346 20.4427 15.9973 20.56L18.2853 21.296C19.2453 21.6053 19.96 22.0373 20.4293 22.592C20.9093 23.1467 21.1493 23.824 21.1493 24.624C21.1493 25.3173 20.968 25.936 20.6053 26.48C20.2426 27.0133 19.7413 27.4347 19.1013 27.744C18.472 28.0427 17.736 28.192 16.8933 28.192ZM22.8047 28V16.08H25.2847V25.84H30.3247V28H22.8047Z" fill="#0AB39E"/>
</svg>
